<?xml version="1.0" encoding="UTF-8"?>
<svg id="Camada_2" data-name="Camada 2" xmlns="http://www.w3.org/2000/svg" viewBox="0 0 551.16 646.64">
  <defs>
    <style>
      .cls-1 {
        fill: currentColor;
      }
    </style>
  </defs>
  <g id="Camada_1-2" data-name="Camada 1">
    <g>
      <path class="cls-1" d="M551.16,10.17v18.83c0,5.11-3.81,9.4-8.88,10.08-9.21,1.24-17.25,2.49-24.17,3.73-38.17,6.65-61.8,13.26-61.82,56.94v318.23c0,142.44-80.12,228.66-254.08,228.66C59.17,646.64,0,575.36,0,482.84c0-30.2,8.44-55.11,25.52-74.93,16.98-19.72,40.36-29.59,70.26-29.59,28.16,0,50.63,8.24,67.31,24.71,16.67,16.57,25.01,37.01,25.01,61.31,0,20.74-7.22,39.96-21.66,57.65-14.34,17.59-30.81,33.96-49.31,48.8v6.3c0,5.29,5.89,23.09,41.17,23.09,30,0,78.7-28.81,78.7-168.07V102.42c-.98-18.75-3.32-39-22.32-48.71-27.33-12.34-64.54-12.57-93.57-13.11H50.94c-5.62,0-10.17-4.55-10.17-10.17V10.17c0-5.62,4.55-10.17,10.17-10.17h490.06c5.62,0,10.17,4.55,10.17,10.17Z"/>
      <path class="cls-1" d="M341.99,261.35v.05h.4c-.1,0-.25-.05-.4-.05Z"/>
    </g>
  </g>
</svg>